<?xml version="1.0" encoding="utf-8"?>
<!-- Generator: Adobe Illustrator 24.1.2, SVG Export Plug-In . SVG Version: 6.00 Build 0)  -->
<svg version="1.1" id="Layer_1" xmlns="http://www.w3.org/2000/svg" xmlns:xlink="http://www.w3.org/1999/xlink" x="0px" y="0px"
	 viewBox="0 0 595.28 841.89" style="enable-background:new 0 0 595.28 841.89;" xml:space="preserve">
<style type="text/css">
	.st0{font-family:'Arial-Black';}
	.st1{font-size:233.4137px;}
</style>
<g>
	<g>
		<g>
			<path d="M420.02,415.99c2.68-1.99,5.4-3.9,8.1-5.85l8.18-5.71c5.46-3.8,10.97-7.51,16.5-11.21c5.53-3.69,11.08-7.33,16.65-10.95
				c5.58-3.6,11.16-7.21,16.77-10.74l7.01-4.41l0.25,8.6c0.13,4.41,0.24,8.83,0.32,13.24c0.09,4.41,0.19,8.83,0.24,13.24l0.16,13.24
				l0.08,13.24l0.02,3.24l-2.82,1.76l-14.88,9.28l-14.94,9.17l-15.01,9.06l-15.08,8.94l0.03-9.26c7.03,4.65,14.06,9.3,21.05,14.02
				c6.99,4.72,13.94,9.49,20.87,14.31c6.92,4.83,13.81,9.71,20.64,14.68c6.82,4.98,13.63,10,20.31,15.2
				c-7.61-3.73-15.1-7.64-22.57-11.59c-7.46-3.96-14.86-8.02-22.24-12.12c-7.37-4.11-14.71-8.27-22.01-12.48
				c-7.31-4.21-14.57-8.49-21.83-12.77l-7.5-4.43l7.52-4.83l14.75-9.48l14.82-9.36l14.89-9.25l14.96-9.14l-2.81,5l0.22-13.24
				l0.31-13.24c0.09-4.41,0.25-8.83,0.38-13.24c0.13-4.41,0.29-8.83,0.47-13.24l7.27,4.19c-5.82,3.18-11.69,6.3-17.55,9.42
				c-5.87,3.1-11.76,6.17-17.68,9.2c-5.92,3.02-11.85,6.03-17.83,8.94l-8.98,4.36C426.06,413.17,423.06,414.62,420.02,415.99z"/>
		</g>
		<g>
			<path d="M365.22,457.48c5.29,2.58,10.52,5.25,15.73,7.96c5.22,2.69,10.4,5.45,15.56,8.23c10.32,5.58,20.59,11.24,30.77,17.05
				c5.11,2.87,10.16,5.83,15.25,8.74l15.16,8.88c10.08,5.97,20.11,12,30.1,18.12l2.82,1.73l-0.01,3.36l-0.02,12.6l-0.1,12.6
				c-0.05,8.4-0.23,16.8-0.37,25.2l-0.17,10.2l-8.51-5.32l-12.49-7.81l-12.44-7.9l-12.38-7.99l-12.32-8.1
				c-8.19-5.43-16.34-10.94-24.44-16.53l-6.06-4.22l-6.02-4.28c-4.02-2.84-8-5.74-11.96-8.7c4.47,2.1,8.9,4.24,13.3,6.45l6.61,3.3
				l6.57,3.36c8.74,4.51,17.44,9.1,26.09,13.77l12.94,7.05l12.88,7.16l12.82,7.25l12.77,7.34l-8.67,4.88
				c-0.04-8.4-0.13-16.8-0.09-25.2l0.04-12.6l0.12-12.6l2.81,5.09c-9.92-6.23-19.79-12.53-29.62-18.9l-14.7-9.63
				c-4.87-3.26-9.77-6.47-14.61-9.77c-9.73-6.54-19.37-13.21-28.95-19.97c-4.79-3.38-9.57-6.79-14.3-10.28
				C374.61,464.57,369.88,461.07,365.22,457.48z"/>
		</g>
		<g>
			<path d="M224.56,422.03c4.76,2.35,9.49,4.75,14.18,7.21l7.05,3.67l7.01,3.74c9.32,5.01,18.59,10.12,27.82,15.29l13.8,7.82
				l13.73,7.93c9.14,5.32,18.23,10.71,27.3,16.13l8.03,4.8l-8.07,5.01l-15.71,9.75l-15.77,9.64l-15.83,9.54l-15.9,9.42l2.76-4.88
				l-0.27,13.02c-0.07,4.34-0.22,8.68-0.33,13.02c-0.11,4.34-0.25,8.68-0.41,13.02c-0.15,4.34-0.29,8.68-0.48,13.02l-6.7-3.76
				c5.24-2.97,10.51-5.9,15.78-8.82c5.28-2.9,10.57-5.81,15.89-8.65c5.31-2.86,10.64-5.69,16.01-8.45
				c5.35-2.79,10.73-5.53,16.17-8.19c-4.82,3.66-9.7,7.22-14.6,10.74c-4.89,3.55-9.82,7.03-14.76,10.48
				c-4.94,3.46-9.91,6.87-14.89,10.28c-4.98,3.39-9.97,6.77-14.99,10.11l-6.4,4.26l-0.3-8.02c-0.16-4.34-0.29-8.68-0.41-13.02
				c-0.13-4.34-0.24-8.68-0.33-13.02c-0.08-4.34-0.21-8.68-0.26-13.02l-0.19-13.02l-0.05-3.14l2.8-1.74l15.7-9.76l15.77-9.65
				l15.83-9.54l15.9-9.44l-0.04,9.81c-8.91-5.69-17.79-11.42-26.63-17.21l-13.23-8.74l-13.16-8.85
				c-8.75-5.94-17.46-11.95-26.11-18.05l-6.47-4.6l-6.44-4.66C233.05,428.4,228.79,425.24,224.56,422.03z"/>
		</g>
		<g>
			<path d="M371.72,435.47c-4.46-2.02-8.88-4.11-13.27-6.25c-4.4-2.12-8.77-4.29-13.13-6.49c-8.71-4.39-17.34-8.92-25.93-13.52
				c-4.3-2.3-8.58-4.62-12.84-6.97c-4.28-2.33-8.52-4.71-12.77-7.09c-8.49-4.76-16.94-9.6-25.35-14.5l8.89-5.02
				c0.04,4.01,0.02,8.01,0.02,12.02c-0.01,4.01,0.01,8.01-0.05,12.02l-0.12,12.02l-0.21,12.02l-2.64-4.89
				c7.54,5.05,15.04,10.16,22.5,15.34c7.47,5.16,14.87,10.42,22.25,15.72c7.36,5.33,14.69,10.71,21.94,16.2
				c3.63,2.75,7.23,5.52,10.81,8.34c3.6,2.79,7.16,5.64,10.68,8.55c-4.09-2.03-8.14-4.12-12.16-6.27
				c-4.03-2.12-8.04-4.29-12.02-6.48c-7.97-4.39-15.86-8.9-23.73-13.45c-7.84-4.58-15.66-9.21-23.42-13.93
				c-7.77-4.7-15.48-9.48-23.17-14.31l-2.62-1.64l-0.02-3.24l-0.08-12.02l0.02-12.02c-0.01-4.01,0.06-8.01,0.09-12.02
				c0.04-4.01,0.07-8.01,0.15-12.02l0.22-10.32l8.67,5.3c8.3,5.08,16.57,10.22,24.79,15.43c4.1,2.62,8.22,5.22,12.3,7.88
				c4.09,2.64,8.17,5.31,12.23,8c8.13,5.37,16.21,10.83,24.21,16.41c4,2.79,7.99,5.6,11.94,8.47
				C363.89,429.6,367.83,432.49,371.72,435.47z"/>
		</g>
	</g>
	<text transform="matrix(-4.371127e-03 0.7895 -1 -5.536415e-03 285.2402 76.8369)" class="st0 st1">NE</text>
	<text transform="matrix(-4.371127e-03 0.7895 -1 -5.536415e-03 270.2849 585.7926)" class="st0 st1">T</text>
	<text transform="matrix(-4.371127e-03 0.7895 -1 -5.536415e-03 112.103 445.9616)" class="st0 st1">gen</text>
</g>
</svg>
